<svg xmlns="http://www.w3.org/2000/svg" version="1.1" xmlns:xlink="http://www.w3.org/1999/xlink" xmlns:svgjs="http://svgjs.dev/svgjs" width="1000" height="623" viewBox="0 0 1000 623"><g transform="matrix(1,0,0,1,-0.6060606060606233,0.2522267206477409)"><svg viewBox="0 0 396 247" data-background-color="#ffffff" preserveAspectRatio="xMidYMid meet" height="623" width="1000" xmlns="http://www.w3.org/2000/svg" xmlns:xlink="http://www.w3.org/1999/xlink"><g id="tight-bounds" transform="matrix(1,0,0,1,0.2400000000000091,-0.09999999999999432)"><svg viewBox="0 0 395.52 247.2" height="247.2" width="395.52"><g><svg></svg></g><g><svg viewBox="0 0 395.52 247.2" height="247.2" width="395.52"><g transform="matrix(1,0,0,1,163.53416973293767,47.215199999999996)"><svg viewBox="0 0 68.45166053412463 152.7696" height="152.7696" width="68.45166053412463"><g><svg viewBox="0 0 68.45166053412463 152.7696" height="152.7696" width="68.45166053412463"><g><svg viewBox="0 0 68.45166053412463 152.7696" height="152.7696" width="68.45166053412463"><g><svg viewBox="0 0 68.45166053412463 152.7696" height="152.7696" width="68.45166053412463"><g id="textblocktransform"><svg viewBox="0 0 68.45166053412463 152.7696" height="152.7696" width="68.45166053412463" id="textblock"><g><svg viewBox="0 0 68.45166053412463 152.7696" height="152.7696" width="68.45166053412463"><g transform="matrix(1,0,0,1,0,0)"><svg width="68.45166053412463" viewBox="1.5 -33.650001525878906 15.100000381469727 33.70000076293945" height="152.7696" data-palette-color="#ea3c12"><path d="M1.5-0.95L1.5-0.95 1.5-7.75Q3.35-6.6 5.35-6.6L5.35-6.6Q8.9-6.6 8.9-10.4L8.9-10.4 8.9-33.65 16.6-33.65 16.6-10.2Q16.6-5.35 14.03-2.65 11.45 0.05 6.85 0.05L6.85 0.05Q3.4 0.05 1.5-0.95Z" opacity="1" transform="matrix(1,0,0,1,0,0)" fill="#ea3c12" class="undefined-text-0" data-fill-palette-color="primary" id="text-0"></path></svg></g></svg></g></svg></g></svg></g></svg></g></svg></g></svg></g><path d="M49.685 41.215L49.685 0 296.885 0 296.885 247.2 49.685 247.2 49.685 205.985 63.461 205.985 63.461 233.423 283.108 233.423 283.108 13.777 63.461 13.777 63.461 41.215Z" fill="#ea3c12" stroke="transparent" data-fill-palette-color="primary"></path></svg></g><defs></defs></svg><rect width="395.52" height="247.2" fill="none" stroke="none" visibility="hidden"></rect></g></svg></g></svg>