<svg width="542" height="537" viewBox="0 0 542 537" fill="none" xmlns="http://www.w3.org/2000/svg">
<rect x="52" y="15" width="384" height="319" rx="6" fill="#F9E5DA"/>
<path fill-rule="evenodd" clip-rule="evenodd" d="M138.956 85.1735C131.885 78.267 122.051 74.9881 112.265 76.2745C102.736 77.6196 94.2711 83.079 89.0968 91.2164C86.1426 95.7792 84.343 100.996 83.8542 106.414L85.1626 105.1C73.0531 104.05 60.8702 105.96 49.6582 110.668C40.2425 115.182 33.5911 123.992 31.812 134.306C30.8842 139.78 32.0419 145.404 35.0555 150.062L35.9267 147.917C21.1433 151.68 8.8653 161.976 2.55435 175.903C-0.272308 182.968 -0.767533 190.756 1.14131 198.124C3.00437 204.893 7.32453 210.718 13.2525 214.455C19.571 218.631 27.4196 219.755 34.6513 217.521L32.6465 216.381C36.9739 229.222 48.0408 238.6 61.3865 240.734C76.4409 243.73 92.0608 241.639 105.804 234.786C114.023 230.909 121.487 225.595 127.848 219.092L126.656 219.588C135.017 220.106 143.401 219.069 151.386 216.529C158.771 214.319 165.779 210.997 172.169 206.676C178.085 202.767 183.042 197.565 186.667 191.461C189.959 185.712 191.406 179.084 190.811 172.481C190.331 165.168 186.746 158.413 180.965 153.931V156.936C189.094 150.716 193.579 140.827 192.913 130.594C192.133 122.724 188.25 115.493 182.127 110.51C176.004 105.527 168.15 103.204 160.311 104.059L161.536 107.026C167.056 101.719 168.563 93.4617 165.276 86.5375C161.824 79.8038 154.248 76.2888 146.897 78.0105C142.846 78.814 139.234 81.0895 136.753 84.4006C136.302 85.1881 136.564 86.193 137.342 86.6574C138.129 87.094 139.119 86.8338 139.591 86.0663C143.455 81.5235 149.713 79.8446 155.321 81.8462C160.984 84.0621 164.361 89.9166 163.453 95.9449C163.122 99.2652 161.564 102.341 159.085 104.567C158.606 105.07 158.468 105.809 158.733 106.451C158.998 107.094 159.617 107.519 160.31 107.535C169.4 106.499 178.392 110.162 184.189 117.26C189.715 124.323 191.126 133.783 187.904 142.159C186.252 146.87 183.225 150.972 179.215 153.931C178.757 154.208 178.45 154.68 178.382 155.212C178.314 155.744 178.491 156.278 178.864 156.663C188.459 165.216 190.389 179.516 183.405 190.32C179.733 196.255 174.731 201.248 168.797 204.903C162.274 209.069 155.145 212.194 147.665 214.165C143.622 215.273 139.482 215.983 135.302 216.286C133.275 216.418 131.24 216.405 129.211 216.339C128.218 216.181 127.207 216.156 126.207 216.265C125.33 216.731 124.569 217.389 123.982 218.191C118.717 223.306 112.716 227.598 106.18 230.926C93.7417 237.574 79.5442 240.161 65.5696 238.324C53.5559 237.21 42.8894 230.155 37.1357 219.518C36.574 218.222 36.1233 216.881 35.7886 215.509C35.5422 214.643 34.6501 214.136 33.7834 214.368C21.6333 217.784 8.91963 211.186 4.68153 199.265C2.43803 192.638 2.44528 185.452 4.70214 178.83C6.93848 172.222 10.9203 166.346 16.2232 161.829C22.1998 156.735 29.1762 152.955 36.701 150.736C37.1343 150.61 37.4863 150.292 37.6562 149.873C37.8261 149.454 37.7951 148.98 37.5721 148.586C32.9391 140.561 33.6195 130.519 39.2926 123.196C45.767 114.851 55.4167 109.592 65.9194 108.684C72.2947 107.808 78.7335 107.488 85.1638 107.725C85.8795 107.71 86.4564 107.132 86.4726 106.414C87.3665 97.5754 91.954 89.5307 99.0968 84.2766C106.374 79.0801 115.539 77.3011 124.223 79.3993C129.27 80.5403 133.979 82.8584 137.966 86.1655C138.244 86.4126 138.665 86.4002 138.927 86.1371C139.189 85.8741 139.202 85.4516 138.955 85.1735H138.956Z" fill="#E7C4B2"/>
<path fill-rule="evenodd" clip-rule="evenodd" d="M364.18 61.3871C353.675 66.4162 346.6 76.6467 345.578 88.2873V88.2881C345.564 88.6851 345.24 89 344.844 89C344.449 89 344.125 88.6851 344.111 88.2881C343.843 85.5721 344.061 82.8297 344.757 80.1912C348.703 69.012 357.516 60.2535 368.69 56.4069C372.029 54.9106 375.55 53.9059 379.144 53.411C378.669 54.342 378.25 55.3043 377.889 56.2933C373.086 57.2424 368.457 58.9596 364.18 61.3871ZM381.184 55.7665C380.078 55.9021 378.979 56.0779 377.889 56.2933C377.665 56.9074 377.464 57.5318 377.287 58.1654C375.73 63.9623 377.367 70.153 381.584 74.4103C385.471 77.7217 390.903 78.5056 395.561 76.4275C400.387 74.2488 402.786 68.7534 401.109 63.7136C399.089 57.8788 393.859 53.7681 387.732 53.2005C386.039 53.0513 384.342 53.0156 382.654 53.0913C382.711 53.0068 382.769 52.9228 382.828 52.8392C386.654 47.686 391.833 43.7048 397.786 41.3424C410.759 36.2798 424.559 33.6952 438.477 33.7217C440.508 33.6136 442.54 33.5201 444.572 33.4266C449.569 33.1967 454.564 32.9669 459.549 32.5208C465.946 32.3054 472.226 30.7386 477.98 27.9226C479.135 27.3183 480.209 26.5944 481.187 25.7694C481.344 25.7793 481.501 25.788 481.659 25.7954C487.62 26.5377 493.66 26.3599 499.568 25.268C511.362 23.1657 522.271 17.598 530.913 9.26927C531.009 9.17475 531.104 9.07992 531.199 8.98478C529.9 11.4025 528.759 13.9087 527.783 16.4874C527.12 18.1557 529.811 18.9335 530.44 17.238C532.305 12.4476 534.565 7.82885 537.195 3.43173C537.43 2.97887 537.326 2.43153 536.969 2.09968C537.027 1.82859 537.004 1.54072 536.894 1.27406C536.686 0.769915 536.203 0.434638 535.66 0.416599L517.019 0.941033C516.186 0.968401 515.526 1.65374 515.526 2.48984C515.526 3.32593 516.186 4.01127 517.019 4.03864L532.68 3.29974C525.51 11.649 516.081 17.7654 505.509 20.8878C499.799 22.647 493.854 23.5115 487.882 23.4506C486.438 23.4909 484.997 23.4532 483.564 23.339C485.468 20.9752 486.763 18.1285 487.268 15.048C488.331 9.92291 486.151 4.66852 481.778 1.81758C478.788 0.278554 475.4 -0.303569 472.071 0.149607C469.05 0.294401 466.149 1.37847 463.768 3.25178C461.741 5.39919 460.659 8.27506 460.766 11.232C460.873 14.189 462.159 16.9785 464.336 18.9728C468.001 22.0772 472.355 24.2035 476.998 25.1932C474.414 26.9082 471.451 28.0419 468.311 28.4678C461.674 29.7137 454.946 30.4047 448.195 30.5335C446.246 30.6374 444.295 30.73 442.345 30.8227C437.196 31.0672 432.047 31.3117 426.913 31.7622C413.164 32.1828 399.768 36.2348 388.075 43.5099C384.256 45.9791 381.187 49.4049 379.144 53.411C380.308 53.2508 381.479 53.144 382.654 53.0913C382.076 53.9436 381.586 54.8397 381.184 55.7665ZM479.893 22.8755C481.108 23.0861 482.333 23.2408 483.564 23.339C482.853 24.2206 482.058 25.0351 481.187 25.7694C479.772 25.6797 478.373 25.4863 476.998 25.1932C478.027 24.5102 478.996 23.735 479.893 22.8755ZM479.893 22.8755C476.491 22.2859 473.167 21.2585 470.006 19.8107C467.196 18.5043 465.02 16.1287 463.958 13.2085C462.931 10.547 463.563 7.52757 465.571 5.50689C467.991 3.70239 470.978 2.83278 473.984 3.05704C477.008 2.85136 479.982 3.91176 482.201 5.98648C485.08 9.85959 485.358 15.0909 482.906 19.2497C482.033 20.5808 481.021 21.7948 479.893 22.8755ZM535.251 2.44461L534.48 1.09591C533.897 1.84672 533.297 2.58149 532.68 3.29974L534.722 3.20343C534.896 2.94919 535.073 2.69624 535.251 2.44461ZM381.184 55.7665C381.391 55.7412 381.597 55.7173 381.805 55.6947C388.087 54.4523 394.483 57.2224 397.895 62.6635C399.218 65.0029 399.397 67.8228 398.381 70.312C397.365 72.3333 395.524 73.8111 393.336 74.3613C388.579 75.7816 383.493 73.5574 381.289 69.0921C379.355 64.8194 379.358 59.9751 381.184 55.7665Z" fill="#E7C4B2"/>
<g filter="url(#filter0_d_0_63)">
<rect x="278" y="53" width="216" height="68" rx="6" fill="white"/>
</g>
<circle cx="313" cy="87" r="20" fill="#EF6D58"/>
<circle cx="345" cy="87" r="22" fill="#B550F8" stroke="white" stroke-width="4"/>
<circle cx="377" cy="87" r="22" fill="#F7CC47" stroke="white" stroke-width="4"/>
<rect x="409" y="73" width="62" height="14" rx="2" fill="#F5DED1"/>
<rect x="409" y="95" width="51" height="6" rx="3" fill="#F5DED1"/>
<g clip-path="url(#clip0_0_63)">
<path d="M389.202 507.037C368.117 507.093 347.053 505.714 326.156 502.911C325.474 502.824 324.782 502.726 324.095 502.624C318.966 501.895 313.834 501.063 308.845 500.148C286.393 496.047 265.221 490.058 245.916 482.345C181.675 456.678 141.284 462.141 118.712 471.242C94.2854 481.093 84.8955 497.209 84.8035 497.371L84 496.915C84.0932 496.751 93.6042 480.395 118.298 470.415C132.776 464.563 149.573 462.005 168.224 462.811C191.506 463.818 217.761 470.102 246.259 481.488C265.507 489.178 286.62 495.151 309.011 499.241C313.988 500.152 319.108 500.984 324.228 501.711C324.912 501.812 325.597 501.909 326.278 501.996C382.923 509.779 437.569 505.085 473.438 499.778C503.003 495.404 522.03 490.289 522.219 490.238L522.46 491.128C522.271 491.18 503.197 496.308 473.573 500.691C445.641 504.846 417.442 506.967 389.202 507.037V507.037Z" fill="#E7C4B2"/>
<path d="M386.872 174.462C386.872 174.462 368.71 167.983 357.034 193.899C345.358 219.815 327.195 248.322 327.195 248.322L337.574 250.914C337.574 250.914 340.168 232.773 346.655 230.181L344.06 253.505C344.06 253.505 421.9 280.717 456.928 250.914L455.631 241.843C455.631 241.843 460.82 243.139 460.82 250.914L464.712 247.026C464.712 247.026 460.82 239.252 449.144 228.885C441.48 222.081 438.847 209.136 437.942 201.043C437.264 194.285 434.557 187.89 430.176 182.696C422.417 173.714 408.278 164.167 386.872 174.462Z" fill="#2F2E41"/>
<path d="M497.107 321.11C497.107 321.11 531.285 350.228 536.311 367.296C541.337 384.365 517.212 386.373 517.212 386.373L464.939 391.394C464.939 391.394 463.934 415.491 454.887 418.503C445.84 421.515 453.05 378.655 453.05 378.655L504.143 364.284L481.023 340.187L497.107 321.11Z" fill="#FBBEBE"/>
<path d="M337.274 351.232L333.253 404.446L311.137 494.811C311.137 494.811 291.033 535.977 308.122 536.981C325.211 537.985 324.205 497.823 324.205 497.823L356.373 412.479L359.389 354.244L337.274 351.232Z" fill="#FBBEBE"/>
<path d="M393.567 257.855C411.888 257.855 426.74 243.02 426.74 224.721C426.74 206.422 411.888 191.587 393.567 191.587C375.246 191.587 360.394 206.422 360.394 224.721C360.394 243.02 375.246 257.855 393.567 257.855Z" fill="#FBBEBE"/>
<path d="M378.488 240.786C378.488 240.786 390.551 283.96 371.452 295.005C352.352 306.049 419.703 314.082 437.798 280.948C437.798 280.948 405.63 269.903 414.677 240.786H378.488Z" fill="#FBBEBE"/>
<path d="M355.368 300.025L349.336 298.017C349.336 298.017 337.274 303.037 337.274 312.074C337.274 321.11 335.263 357.256 335.263 357.256L362.405 360.268L355.368 300.025Z" fill="#B550F8"/>
<path d="M473.506 500.234C436.397 505.725 382.31 510.159 326.219 502.454C326.215 501.9 326.215 501.36 326.215 500.834C326.215 497.701 326.335 494.603 326.575 491.541C329.448 453.834 348.897 422.398 356.422 411.504C356.801 410.95 357.152 410.452 357.466 410.009C358.681 408.307 359.388 407.407 359.388 407.407C359.388 407.407 417.692 406.456 447.849 418.504C449.303 419.114 450.633 419.983 451.775 421.069C463.019 431.433 469.625 465.079 473.506 500.234Z" fill="#2F2E41"/>
<path d="M451.871 285.968C451.871 285.968 464.939 278.94 478.007 294.001L504.143 324.122L484.039 346.211L445.84 323.118L451.871 285.968Z" fill="#B550F8"/>
<path d="M357.721 224.931C369.464 216.442 378.97 206.665 385.259 195.034C385.259 195.034 406.81 218.952 419.98 220.147C433.151 221.343 421.178 191.446 421.178 191.446L397.232 185.467L374.483 187.859L356.524 199.817L357.721 224.931Z" fill="#2F2E41"/>
<path d="M432.771 278.94C432.771 278.94 418.704 301.156 376.481 290.55L352.521 297.141L349.336 298.017C349.336 298.017 352.352 358.26 360.394 369.305C368.436 380.349 366.426 386.374 364.415 387.378C362.405 388.382 357.378 386.373 360.394 391.394C363.41 396.414 367.431 393.402 363.41 396.414C359.389 399.426 357.378 410.471 357.378 410.471L451.871 422.519C451.871 422.519 448.855 383.361 456.897 363.28C464.939 343.199 466.95 335.167 466.95 335.167L460.918 284.964L432.771 278.94Z" fill="#B550F8"/>
<path d="M236.386 259.284H107.038V420.779H236.386V259.284Z" fill="#E6E6E6"/>
<path d="M143.764 272.895H116.046V291.352H143.764V272.895Z" fill="white"/>
<path d="M223.452 308.886H116.277V315.346H223.452V308.886Z" fill="white"/>
<path d="M223.452 325.958H116.277V332.418H223.452V325.958Z" fill="white"/>
<path d="M223.452 343.03H116.277V349.49H223.452V343.03Z" fill="white"/>
<path d="M223.452 360.103H116.277V366.563H223.452V360.103Z" fill="white"/>
<path d="M223.452 377.175H116.277V383.635H223.452V377.175Z" fill="white"/>
<path d="M261.794 420.548C261.788 426.642 259.581 432.53 255.578 437.129C251.574 441.728 246.043 444.729 240.002 445.582C233.96 446.434 227.814 445.08 222.691 441.769C217.569 438.458 213.815 433.411 212.12 427.557C210.424 421.703 210.9 415.434 213.461 409.902C216.022 404.371 220.495 399.948 226.059 397.447C231.623 394.946 237.904 394.534 243.748 396.288C249.591 398.041 254.605 401.842 257.868 406.992C260.434 411.049 261.795 415.749 261.794 420.548V420.548Z" fill="#B550F8"/>
<path d="M257.868 406.992L232.857 431.968C231.285 429.537 222.528 418.241 222.528 418.241C223.65 417.108 224.848 416.052 226.113 415.08L233.375 424.751L254.939 403.213C256.032 404.377 257.013 405.642 257.868 406.992V406.992Z" fill="white"/>
</g>
<defs>
<filter id="filter0_d_0_63" x="230" y="29" width="312" height="164" filterUnits="userSpaceOnUse" color-interpolation-filters="sRGB">
<feFlood flood-opacity="0" result="BackgroundImageFix"/>
<feColorMatrix in="SourceAlpha" type="matrix" values="0 0 0 0 0 0 0 0 0 0 0 0 0 0 0 0 0 0 127 0" result="hardAlpha"/>
<feOffset dy="24"/>
<feGaussianBlur stdDeviation="24"/>
<feColorMatrix type="matrix" values="0 0 0 0 0.334635 0 0 0 0 0.117122 0 0 0 0 0 0 0 0 0.0818897 0"/>
<feBlend mode="normal" in2="BackgroundImageFix" result="effect1_dropShadow_0_63"/>
<feBlend mode="normal" in="SourceGraphic" in2="effect1_dropShadow_0_63" result="shape"/>
</filter>
<clipPath id="clip0_0_63">
<rect width="453" height="367" fill="white" transform="translate(84 170)"/>
</clipPath>
</defs>
</svg>
