<svg width="516" height="551" viewBox="0 0 516 551" fill="none" xmlns="http://www.w3.org/2000/svg">
<rect x="0.299194" y="284.234" width="447" height="148" rx="6" transform="rotate(-32 0.299194 284.234)" fill="#F9E5DA"/>
<path fill-rule="evenodd" clip-rule="evenodd" d="M219.706 380.348C209.882 366.266 192.96 358.966 176.006 361.495C171.828 362.042 167.748 363.181 163.89 364.878C159.752 366.858 155.84 369.283 152.224 372.109C148.44 375.081 144.432 377.754 140.236 380.105C135.86 382.422 130.933 383.491 125.993 383.195C115.6 381.372 105.539 377.991 96.1499 373.166C86.1559 369.202 75.3002 367.933 64.6646 369.486C55.0201 370.936 46.1596 375.647 39.5516 382.838C33.3054 389.526 29.8651 398.368 29.9437 407.53C30.7373 413.191 31.2162 418.892 31.3785 424.607C30.706 429.291 28.7597 433.698 25.7533 437.345C22.9118 440.914 20.5021 444.809 18.5746 448.947C16.9428 453.077 16.5692 457.599 17.501 461.942C19.8489 470.791 25.5227 478.385 33.3327 483.132C42.021 488.543 52.1053 491.272 62.3294 490.979C73.0375 490.785 83.5286 487.919 92.8549 482.641C101.187 476.919 110.49 472.769 120.308 470.394C131.054 470.259 141.763 471.679 152.105 474.61C157.23 475.544 162.47 475.656 167.63 474.943C171.889 474.231 175.997 472.802 179.781 470.717C187.55 466.486 193.782 459.896 197.582 451.893C199.448 447.917 200.618 443.648 201.04 439.274C200.604 434.613 201.999 429.965 204.928 426.319C208.118 423.951 211.696 422.16 215.501 421.026C219.646 419.604 223.392 417.207 226.425 414.037C231.053 408.83 232.952 401.734 231.545 394.903C230.139 388.072 225.593 382.311 219.286 379.366C218.331 378.844 217.135 379.159 216.56 380.085C216.013 381.037 216.331 382.252 217.272 382.813C225.249 386.384 229.59 395.115 227.632 403.651C226.584 407.91 224.061 411.658 220.513 414.226C217.089 416.256 213.452 417.899 209.668 419.126C205.879 420.384 202.532 422.709 200.026 425.823C197.802 430.144 196.725 434.966 196.899 439.825C195.755 448.011 191.843 455.556 185.817 461.198C179.974 466.948 172.329 470.496 164.177 471.242C153.821 470.885 143.538 469.369 133.518 466.724C128.391 465.824 123.151 465.773 118.008 466.575C113.244 467.536 108.646 469.189 104.358 471.48C95.9439 476.68 87.0763 481.103 77.8643 484.694C59.1199 491.294 38.257 485.662 25.3525 470.518C22.9058 467.234 21.3158 463.389 20.7267 459.333C20.2823 455.178 21.164 450.99 23.2449 447.369C25.4119 443.436 28.3408 440.003 30.7205 436.209C33.3316 432.271 34.7666 427.668 34.8565 422.941C34.8812 417.475 33.3327 412.133 33.3179 406.667C33.3303 402.399 34.2654 398.186 36.0587 394.316C39.7789 386.395 46.1613 380.04 54.0871 376.365C63.4798 372.299 73.9056 371.279 83.9051 373.449C93.8557 376.239 103.595 379.736 113.05 383.915C117.749 385.678 122.709 386.643 127.724 386.772C132.567 386.725 137.329 385.523 141.617 383.265C149.755 379.103 156.206 372.273 164.469 368.315C179.406 361.765 196.703 363.782 209.742 373.593C212.822 375.932 215.625 378.617 218.098 381.593C218.467 381.941 219.032 381.969 219.432 381.659C219.833 381.349 219.949 380.793 219.706 380.348V380.348V380.348Z" fill="#E7C4B2"/>
<path fill-rule="evenodd" clip-rule="evenodd" d="M507.41 100.581L507.575 100.535C508.974 100.166 508.179 98.3245 507.013 98.3112C506.564 98.3053 506.243 98.4535 506.034 98.6894C506.182 99.1522 506.314 99.6204 506.429 100.093L506.706 99.078L508.066 99.9367L507.41 100.581ZM502.477 89.7985L502.839 90.7077L504.887 95.8593C505.34 96.7733 505.723 97.7193 506.034 98.6894C505.379 99.4268 505.813 101.021 506.82 101.447C507.647 101.731 508.56 101.407 509.022 100.665C509.593 99.7456 509.624 98.5903 509.106 97.6407C508.384 95.6743 507.625 93.7182 506.865 91.7618C506.463 90.7253 506.061 89.6887 505.664 88.6505C505.513 88.2528 505.362 87.8546 505.212 87.4563C504.927 86.7031 504.642 85.9495 504.352 85.1982C504.651 84.4013 504.939 83.5992 505.216 82.7921C505.487 82.0931 505.326 81.3062 504.805 80.7772C504.284 80.2481 503.498 80.0736 502.791 80.3304C496.784 81.9096 490.884 83.8885 485.133 86.2536C484.441 86.5558 484.065 87.3104 484.244 88.0361C484.423 88.7617 485.105 89.2446 485.854 89.1768C490.709 88.1031 495.505 86.7758 500.223 85.2005C500.284 85.0531 500.344 84.9055 500.404 84.7578C500.439 84.8732 500.478 84.9874 500.523 85.1001C500.423 85.1337 500.323 85.1672 500.223 85.2005C499.677 86.5256 499.106 87.8406 498.501 89.1395C489.996 109.752 472.961 125.773 451.828 133.036C442.358 135.912 432.287 135.982 422.849 133.238C417.465 131.566 412.522 128.926 407.578 126.284C402.75 123.705 397.921 121.125 392.678 119.445C374.089 113.675 353.803 116.207 337.02 126.391C328.034 132.506 320.169 140.124 313.781 148.903C307.536 157.949 298.946 165.152 288.943 169.729C271.175 176.123 251.429 170.924 239.377 156.679C238.82 155.995 237.813 155.879 237.099 156.417C236.385 156.955 236.219 157.954 236.723 158.679C238.127 160.574 239.708 162.333 241.444 163.932C255.73 176.625 276.317 179.573 293.866 171.44C303.831 165.555 312.388 157.555 318.92 148.018C322.513 143.346 326.535 139.016 330.932 135.085C334.72 131.864 338.892 129.123 343.349 126.924C352.26 122.55 362.025 120.235 371.91 120.154C381.981 120.127 391.877 122.532 400.752 127.163C402.482 128.044 404.191 128.965 405.9 129.887C409.404 131.776 412.908 133.665 416.588 135.206C421.36 137.215 426.423 138.475 431.599 138.941C441.767 139.72 451.998 137.888 461.317 133.62C479.709 124.086 494.217 108.567 502.477 89.7985ZM503.908 83.9141C503.851 83.7212 503.78 83.5342 503.695 83.3547L504.155 83.8236C504.073 83.8538 503.99 83.884 503.908 83.9141ZM501.925 81.5521C501.852 81.5157 501.777 81.4816 501.7 81.4497C501.712 81.4193 501.723 81.3888 501.735 81.3584L501.925 81.5521Z" fill="#E7C4B2"/>
<rect x="214.927" y="268.389" width="316" height="181" rx="6" transform="rotate(21 214.927 268.389)" fill="#F7CC47"/>
</svg>
